<?xml version="1.0" encoding="UTF-8"?>
<svg width="100" height="89.777412" version="1.1" viewBox="0 0 100.00001 89.777415" xmlns="http://www.w3.org/2000/svg">
	<g transform="translate(-26.250806,-106.39002)">
		<g stroke-width=".186614px">
			<path d="m90.956473 135.72837 5.639592 24.54882 26.026595 0.25275 1.80672-15.93169-11.42669-13.28458-9.56167-4.24521z" fill="#f51101" stroke="#000"/>
			<path d="m60.118458 148.99238-12.387375 1.23869-5.378194 16.73383 2.48662 16.37705 13.470615 9.82138 19.918517 1.10366z" fill="#f9e39b" stroke="#f9e39b"/>
			<path d="m27.723935 147.40846 16.417731 1.76724 18.027811-0.51181 20.463003-7.40797 20.80854-14.18746-2.40772-9.30324-12.561266-7.95063-15.56057-2.18538-19.044343 3.81211-14.990763 9.22464-9.769727 14.92199-1.382696 11.82051" fill="#357a4e" stroke="#000"/>
			<path d="m56.095041 149.8916c-0.730338 0.7385-1.016563 1.91403-0.825538 4.19608s0.859216 5.67041 2.279036 9.92357c1.419819 4.25317 3.591118 9.37086 5.733016 13.7513s4.254258 8.02342 6.094804 10.79358 3.409114 4.66735 5.607212 5.5629c2.198098 0.89554 5.025559 0.78962 11.066822-1.52006 6.041264-2.30967 15.295987-6.82288 18.087207-9.3469 2.79121-2.52401-0.88127-3.05878-6.292538-9.51285-5.411271-6.45407-12.56089-18.82708-17.69621-24.43062-5.135321-5.60353-8.256027-4.43711-11.416115-3.4351-3.160089 1.002-6.359414 1.83952-8.546258 2.40893-2.186844 0.5694-3.3611 0.87067-4.091438 1.60917z" fill="#fdb002" stroke="#fdb002"/>
		</g>
		<g fill="none" stroke="#6e9d73">
			<path d="m43.746749 117.3176c1.783467 0.34776 3.566719 0.69548 5.735887 1.92934 2.169169 1.23387 4.724162 3.35366 6.437101 5.21866s2.58382 3.47504 3.150907 5.57911c0.567086 2.10406 0.83046 4.70203 0.85423 7.79433s-0.192038 6.67865-0.407841 10.26491" stroke-width="2.30284"/>
			<path d="m64.482961 109.56898c1.425687 0.80356 2.851133 1.60699 4.554492 4.28213 1.703359 2.67515 3.684655 7.22173 4.762789 10.75406s1.253141 6.05019 1.182705 9.19566c-0.07044 3.14546-0.386295 6.91827-0.702141 10.69094" stroke-width="1.95019"/>
			<path d="m79.823388 108.34663c1.311491 2.34516 2.622857 4.6901 3.715082 7.69185 1.092224 3.00174 1.965343 6.66014 2.4635 10.39685s0.621381 7.5515 0.744602 11.36618" stroke-width="1.95019"/>
			<path d="m93.476943 112.43824c0.900014 2.13376 1.799913 4.26726 2.478617 6.36785 0.678705 2.10059 1.13624 4.1682 1.21688 6.356s-0.215537 4.49576-0.511702 6.80363" stroke-width="1.66808"/>
			<path d="m31.556824 131.26166c2.01686 0.38911 4.033507 0.77817 5.868092 1.3593 1.834585 0.58112 3.487038 1.3542 4.645433 2.44551 1.158395 1.0913 1.822795 2.50064 2.153938 3.98542 0.331142 1.48477 0.329109 3.04489 0.259785 4.74482-0.06932 1.69994-0.205924 3.53954-0.342512 5.37899" stroke-width="1.80912"/>
		</g>
		<g>
			<path d="m73.521114 146.43843c0.05845 1.20179 0.175325 3.60518 1.383283 7.15076s3.506789 8.23306 5.896788 12.4882c2.389998 4.25513 4.870981 8.07765 8.354082 11.35408 3.483101 3.27644 7.968254 6.00682 11.553443 6.60604 3.58518 0.59921 6.27021-0.93267 9.98438-4.90509 3.71418-3.97242 8.45735-10.38517 11.05671-16.44896 2.59936-6.06378 3.05477-11.77837 2.82873-12.66938s-1.13347 3.0415-2.09335 5.33149c-0.95987 2.29-1.97223 2.93754-4.81698 3.26016-2.84475 0.32263-7.52182 0.32029-11.76551-1.38964-4.2437-1.70993-8.053754-5.12747-10.210391-9.11078-2.156636-3.98331-2.659549-8.53214-2.741671-11.02691-0.08212-2.49476 0.256612-2.93517-2.657493-1.54654-2.914104 1.38864-9.080862 4.60622-13.665814 6.80966-4.584953 2.20344-7.587881 3.39263-7.851609 3.70621-0.263729 0.31359 2.211656-0.24842 3.449307-0.52942s1.237651-0.28166 1.296095 0.92012z" fill="#fc5a00" stroke="#fc5a00" stroke-width=".186614px"/>
			<path d="m27.723935 147.40846c2.933366-3.01436 5.866659-6.02865 11.857225-9.51943 5.990565-3.49078 15.037815-7.45771 23.457505-10.09547 8.419689-2.63776 16.211364-3.94625 22.766481-4.24159s11.873065 0.42244 17.190934 1.14021" fill="none" stroke="#b2d5b1" stroke-linejoin="bevel" stroke-width="2.93761"/>
			<path d="m103.44102 127.06846 6.83217 6.27976 0.0876 9.19597 2.67892-2.00141 1.02826-9.20402-2.33575-4.18112-9.03207-5.12782z" fill="#4e5e06" stroke="#000" stroke-width=".186614px"/>
		</g>
		<g fill="none" stroke="#000">
			<g stroke-linecap="round" stroke-linejoin="round">
				<path d="m27.729014 145.70789c-0.03173 1.08785-0.06345 2.17548 5.242 2.92858 5.305451 0.7531 15.947449 1.17177 24.423133 0.28322s14.784545-3.08416 22.09808-6.94398c7.313535-3.85981 15.631101-9.38349 23.948793-14.90725" stroke-width="2.93761" style="paint-order:normal"/>
				<path d="m47.731084 150.23107c-1.576867 3.26724-3.153654 6.53431-4.044489 10.11182-0.890834 3.57751-1.095663 7.46498-0.920438 11.42538s0.730439 7.99315 3.398066 11.83665c2.667626 3.84349 7.447162 7.49724 13.139714 9.2671s12.297459 1.65577 19.048024 0.78026c6.750566-0.87552 13.646031-2.51233 20.005188-5.69757 6.359161-3.18524 12.181351-7.91856 16.285891-12.19247 4.10453-4.27391 6.49096-8.08795 8.02347-13.33933 1.53252-5.25138 2.21094-11.93954 1.16409-16.79957-1.04684-4.86003-3.81905-7.89139-5.51301-9.67724-1.69397-1.78585-2.30971-2.32616-2.92527-2.86631" stroke-width="3.78399"/>
				<path d="m113.96578 132.81196c-0.0649-0.45652-0.53466-3.76203-2.41217-5.55913-1.87751-1.79711-5.36524-3.51-8.85322-5.22301" stroke-width="2.09126"/>
			</g>
			<path d="m113.91853 129.13259c0.36531 0.38326 0.7308 0.76671 1.08558 1.11013 0.35477 0.34342 0.69893 0.64695 0.97294 0.90712s0.4778 0.47687 0.68142 0.6934" stroke-width=".186614px"/>
			<path d="m103.44102 127.06846c1.3606 1.0036 2.72103 2.00708 3.99956 3.19909 1.27853 1.192 2.47513 2.57241 2.94816 4.64999 0.47304 2.07758 0.22264 4.85219-0.0277 7.62665" stroke-linecap="round" stroke-linejoin="round" stroke-width="2.09126"/>
			<g stroke-width=".186614px">
				<path d="m110.36104 142.54419c-1.00047-0.0479-2.0011-0.0957-2.91821 0.10827-0.91711 0.204-1.75054 0.65991-2.41781 1.13129s-1.16828 0.95816-1.30923 1.24838c-0.14096 0.29022 0.078 0.3838 0.43478 0.32822 0.35673-0.0556 0.85137-0.26017 1.43508-0.5089 0.58371-0.24874 1.25646-0.54159 2.06393-0.70903s1.74949-0.20948 2.32306-0.15316c0.57358 0.0563 0.77865 0.21079 0.99354 0.77354 0.2149 0.56274 0.43974 1.5336 0.7922 2.56515 0.35246 1.03154 0.83244 2.1237 1.17885 2.77626 0.3464 0.65255 0.55906 0.86545 0.77783 0.80423 0.21877-0.0612 0.44383-0.39645 0.37456-1.28463-0.0693-0.88819-0.43298-2.32948-0.81221-3.28852-0.37922-0.95904-0.77405-1.43581-0.9303-1.89078-0.15624-0.45496-0.0737-0.88808 0.22756-1.02454 0.30125-0.13645 0.82089 0.0238 1.43781 0.28673 0.61692 0.26294 1.33106 0.6285 1.83285 1.09268 0.50178 0.46417 0.79129 1.02682 1.17988 1.28216 0.38859 0.25535 0.87619 0.20362 0.91982-0.102 0.0436-0.30561-0.3567-0.86533-0.95914-1.51264-0.60244-0.6473-1.40694-1.3821-2.21278-1.65618-0.80583-0.27409-1.61286-0.0872-1.80483-0.25262s0.23124-0.68317 0.64395-1.34615c0.41271-0.66299 0.8149-1.47121 0.97402-2.80756 0.15912-1.33636 0.0751-3.20087-9e-3 -5.06563"/>
				<path d="m109.30742 142.52234c-0.59432-1.31924-1.18872-2.63864-2.04154-3.45149-0.85283-0.81285-1.96414-1.11894-2.85298-1.23203-0.88884-0.1131-1.55514-0.0331-2.28811-0.23699-0.73297-0.20388-1.53257-0.69172-1.36151-0.93383 0.17107-0.2421 1.31283-0.2383 2.41356-0.17704 1.10072 0.0613 2.16024 0.17994 3.31199 0.91203 1.15174 0.73209 2.39559 2.07734 3.63929 3.42243"/>
				<path d="m112.91643 132.07541c0.0888 0.73523 0.17756 1.47026 0.15046 2.64824s-0.17004 2.79887-0.49851 4.01503c-0.32848 1.21615-0.84245 2.02767-1.3564 2.83915"/>
			</g>
			<path d="m27.729014 145.70789c-0.03303-1.94066-0.06606-3.88147 1.059246-7.41957 1.125309-3.5381 3.408848-8.67294 6.960661-13.20683 3.551813-4.53388 8.371409-8.46615 14.322847-11.33366 5.951439-2.86752 13.033902-4.66993 19.600799-5.4552 6.566896-0.78526 12.617384-0.55333 17.827679 1.1302 5.210294 1.68353 9.579859 4.81839 12.096502 8.00129 2.516642 3.1829 3.180472 6.41373 3.844252 9.64434" stroke-linecap="round" stroke-linejoin="round" stroke-width="2.93761"/>
		</g>
		<path d="m114.10104 129.34825 2.22656 2.16388-1.96059 0.0887z" stroke="#000" stroke-width=".186614px"/>
		<path d="m109.67276 140.32463-1.78755-1.79996-1.1779-0.97384-0.92722-0.56079-1.48203-0.41558-2.2849-0.13513-1.08046 0.10007-0.18001 0.15055 0.0325 0.21594 1.35934 0.76311 2.90943 0.21949 1.62682 0.70257 1.12609 1.02993 1.39992 2.62518 0.10055 0.27614-1.91466 0.11017-1.49961 0.57818-1.62972 1.16479-0.58647 0.66212 0.0179 0.29066 0.92768-0.0303 2.70682-1.08911 2.04142-0.26284 1.17458 0.15804 0.54418 0.9116 1.01777 3.3845 1.27927 2.41927 0.39556 0.0905 0.29391-0.59699-0.0537-1.52155-0.74908-2.57195-1.02991-1.98858 0.0775-0.66192 0.53145-0.22173 1.3739 0.44897 1.32206 0.70528 1.41214 1.50974 0.63142 0.2687 0.39985-0.27461-0.3712-0.85071-1.72642-1.74819-1.17965-0.6434-1.74679-0.18874-0.046-0.23565 1.24405-2.14827 0.49973-2.31687 7e-3 -3.31949-1.66984-3.2403-0.17024 6.56334-0.51833 1.75796-1.10217 1.94285z" stroke-width="0"/>
	</g>
</svg>
